<svg xmlns="http://www.w3.org/2000/svg" viewBox="0 0 16 16" width="16" height="16">
  <style>
    rect { shape-rendering: crispEdges; }
    .o { fill: #0a0620; } /* Outline (Ink) */
    .p { fill: #ff3d81; } /* Base Pink */
    .h { fill: #ff8ab8; } /* Highlight Pink */
    .s { fill: #b3005a; } /* Shadow Pink */
    .w { fill: #ffffff; } /* White Shine */
  </style>
  
  <!-- Row 1 -->
  <rect class="o" x="3" y="1" width="2" height="1" />
  <rect class="o" x="11" y="1" width="2" height="1" />
  
  <!-- Row 2 -->
  <rect class="o" x="2" y="2" width="1" height="1" />
  <rect class="h" x="3" y="2" width="1" height="1" />
  <rect class="p" x="4" y="2" width="1" height="1" />
  <rect class="o" x="5" y="2" width="1" height="1" />
  <rect class="o" x="10" y="2" width="1" height="1" />
  <rect class="p" x="11" y="2" width="1" height="1" />
  <rect class="s" x="12" y="2" width="1" height="1" />
  <rect class="o" x="13" y="2" width="1" height="1" />
  
  <!-- Row 3 -->
  <rect class="o" x="1" y="3" width="1" height="1" />
  <rect class="w" x="2" y="3" width="2" height="1" />
  <rect class="h" x="4" y="3" width="1" height="1" />
  <rect class="p" x="5" y="3" width="1" height="1" />
  <rect class="o" x="6" y="3" width="1" height="1" />
  <rect class="o" x="9" y="3" width="1" height="1" />
  <rect class="p" x="10" y="3" width="3" height="1" />
  <rect class="s" x="13" y="3" width="1" height="1" />
  <rect class="o" x="14" y="3" width="1" height="1" />
  
  <!-- Row 4 -->
  <rect class="o" x="1" y="4" width="1" height="1" />
  <rect class="w" x="2" y="4" width="1" height="1" />
  <rect class="h" x="3" y="4" width="1" height="1" />
  <rect class="p" x="4" y="4" width="3" height="1" />
  <rect class="o" x="7" y="4" width="2" height="1" />
  <rect class="p" x="9" y="4" width="4" height="1" />
  <rect class="s" x="13" y="4" width="1" height="1" />
  <rect class="o" x="14" y="4" width="1" height="1" />
  
  <!-- Row 5 -->
  <rect class="o" x="0" y="5" width="1" height="1" />
  <rect class="h" x="1" y="5" width="2" height="1" />
  <rect class="p" x="3" y="5" width="11" height="1" />
  <rect class="s" x="14" y="5" width="1" height="1" />
  <rect class="o" x="15" y="5" width="1" height="1" />
  
  <!-- Row 6 -->
  <rect class="o" x="0" y="6" width="1" height="1" />
  <rect class="p" x="1" y="6" width="13" height="1" />
  <rect class="s" x="14" y="6" width="1" height="1" />
  <rect class="o" x="15" y="6" width="1" height="1" />
  
  <!-- Row 7 -->
  <rect class="o" x="0" y="7" width="1" height="1" />
  <rect class="p" x="1" y="7" width="13" height="1" />
  <rect class="s" x="14" y="7" width="1" height="1" />
  <rect class="o" x="15" y="7" width="1" height="1" />
  
  <!-- Row 8 -->
  <rect class="o" x="1" y="8" width="1" height="1" />
  <rect class="p" x="2" y="8" width="10" height="1" />
  <rect class="s" x="12" y="8" width="2" height="1" />
  <rect class="o" x="14" y="8" width="1" height="1" />
  
  <!-- Row 9 -->
  <rect class="o" x="2" y="9" width="1" height="1" />
  <rect class="p" x="3" y="9" width="8" height="1" />
  <rect class="s" x="11" y="9" width="2" height="1" />
  <rect class="o" x="13" y="9" width="1" height="1" />
  
  <!-- Row 10 -->
  <rect class="o" x="3" y="10" width="1" height="1" />
  <rect class="p" x="4" y="10" width="6" height="1" />
  <rect class="s" x="10" y="10" width="2" height="1" />
  <rect class="o" x="12" y="10" width="1" height="1" />
  
  <!-- Row 11 -->
  <rect class="o" x="4" y="11" width="1" height="1" />
  <rect class="p" x="5" y="11" width="4" height="1" />
  <rect class="s" x="9" y="11" width="2" height="1" />
  <rect class="o" x="11" y="11" width="1" height="1" />
  
  <!-- Row 12 -->
  <rect class="o" x="5" y="12" width="1" height="1" />
  <rect class="p" x="6" y="12" width="2" height="1" />
  <rect class="s" x="8" y="12" width="2" height="1" />
  <rect class="o" x="10" y="12" width="1" height="1" />
  
  <!-- Row 13 -->
  <rect class="o" x="6" y="13" width="1" height="1" />
  <rect class="p" x="7" y="13" width="1" height="1" />
  <rect class="s" x="8" y="13" width="1" height="1" />
  <rect class="o" x="9" y="13" width="1" height="1" />
  
  <!-- Row 14 -->
  <rect class="o" x="7" y="14" width="2" height="1" />
</svg>
